<svg width="16" height="16" viewBox="0 0 16 16" fill="none" xmlns="http://www.w3.org/2000/svg">
<path d="M13.334 1.99935H12.6673V1.33268C12.6673 0.966016 12.3673 0.666016 12.0007 0.666016C11.634 0.666016 11.334 0.966016 11.334 1.33268V1.99935H4.66732V1.33268C4.66732 0.966016 4.36732 0.666016 4.00065 0.666016C3.63398 0.666016 3.33398 0.966016 3.33398 1.33268V1.99935H2.66732C1.93398 1.99935 1.33398 2.59935 1.33398 3.33268V13.9993C1.33398 14.7327 1.93398 15.3327 2.66732 15.3327H13.334C14.0673 15.3327 14.6673 14.7327 14.6673 13.9993V3.33268C14.6673 2.59935 14.0673 1.99935 13.334 1.99935ZM12.6673 13.9993H3.33398C2.96732 13.9993 2.66732 13.6993 2.66732 13.3327V5.33268H13.334V13.3327C13.334 13.6993 13.034 13.9993 12.6673 13.9993Z" fill="white"/>
</svg>
