<svg width="240" height="30" viewBox="0 0 240 30" fill="none" xmlns="http://www.w3.org/2000/svg">
<g clip-path="url(#clip0_15392_258074)">
<path d="M46.025 11.9772C46.6157 11.5622 47.327 11.3576 48.0462 11.3958C48.7223 11.4104 49.3814 11.6115 49.9519 11.9772C50.4932 12.4126 50.8949 12.9991 51.1068 13.6633L53.59 12.9656C53.294 11.8106 52.5976 10.8002 51.6266 10.1167C50.6036 9.46532 49.4245 9.10512 48.2145 9.07441C47.0045 9.0437 45.8088 9.34362 44.7546 9.94232C43.8301 10.5142 43.0884 11.3417 42.6179 12.326C42.1406 13.4273 41.8855 14.613 41.8672 15.8144C41.8985 17.0143 42.1531 18.1975 42.6179 19.3028C43.101 20.2605 43.816 21.0803 44.6968 21.6865C45.741 22.2768 46.9222 22.5772 48.1196 22.5567C49.3169 22.5363 50.4874 22.1958 51.5111 21.5702C52.508 20.8887 53.2419 19.8829 53.59 18.7214L51.1068 18.0819C50.8741 18.7191 50.4751 19.2814 49.9519 19.7098C49.3898 20.0875 48.721 20.2711 48.0462 20.233C47.5387 20.2583 47.0326 20.1606 46.5704 19.9481C46.1081 19.7357 45.7033 19.4147 45.3898 19.0121C44.7721 18.0654 44.4688 16.9458 44.5236 15.8144C44.5073 15.0441 44.6246 14.2768 44.8701 13.547C45.1186 12.9347 45.5157 12.395 46.025 11.9772Z" fill="#222525"/>
<path d="M65.7167 11.5114C65.3555 10.679 64.6956 10.0145 63.8688 9.6509C62.9416 9.241 61.9359 9.04247 60.9236 9.0695C59.6573 9.01787 58.4063 9.36322 57.3433 10.0579C56.4768 10.7078 55.8475 11.6275 55.5531 12.6742L57.863 13.3718C58.0608 12.7323 58.4679 12.179 59.018 11.8021C59.5899 11.5052 60.2224 11.3459 60.8659 11.337C61.9053 11.337 62.6561 11.5695 63.118 12.0928C63.5187 12.6303 63.741 13.2813 63.7533 13.9532L62.3096 14.1277L60.0574 14.4765L58.094 14.9416C57.5176 15.13 56.9726 15.4044 56.477 15.7556C56.0252 16.0828 55.6668 16.5239 55.4376 17.0346C55.1948 17.5623 55.0762 18.1393 55.0911 18.7207C55.0853 19.3962 55.2651 20.0602 55.6108 20.6393C55.9554 21.2292 56.455 21.712 57.0545 22.0346C57.7887 22.4033 58.6021 22.583 59.4222 22.5579C60.4661 22.5896 61.5005 22.3493 62.4251 21.8602C63.0394 21.4656 63.5694 20.9517 63.9843 20.3486V22.209H66.1787V14.3602C66.1787 13.7788 66.1209 13.3137 66.1209 12.8486C66.0741 12.3806 65.9368 11.9263 65.7167 11.5114ZM63.4645 18.023C63.3442 18.4608 63.1488 18.874 62.887 19.2439C62.5347 19.6172 62.1253 19.9312 61.6743 20.1742C61.0891 20.4184 60.4598 20.5372 59.8264 20.523C59.3907 20.5473 58.9554 20.4676 58.556 20.2904C58.2585 20.1408 58.0011 19.9215 57.8052 19.6509C57.6405 19.3699 57.5602 19.0467 57.5743 18.7207C57.5725 18.4287 57.646 18.1412 57.7877 17.8864C57.9295 17.6316 58.1345 17.4182 58.3827 17.2672L59.3067 16.8021L60.6926 16.5114L62.4251 16.2207L63.6955 15.9881V16.7439C63.6799 17.1792 63.6021 17.61 63.4645 18.023Z" fill="#222525"/>
<path d="M82.58 9.12764C81.7981 9.11448 81.0249 9.29412 80.3278 9.65089C79.6656 9.98074 79.121 10.5088 78.7686 11.1625C78.433 10.5546 77.9578 10.0363 77.3827 9.65089C76.6675 9.28706 75.8738 9.10729 75.0728 9.12764C74.2538 9.11391 73.443 9.29309 72.7051 9.65089C72.1979 9.95678 71.7482 10.3504 71.3769 10.8137V9.41834H69.2402V22.209H71.6656V14.2439C71.6274 13.4557 71.8968 12.6837 72.4164 12.0928C72.6483 11.8315 72.9334 11.6237 73.2523 11.4832C73.5712 11.3428 73.9163 11.273 74.2643 11.2788C74.6219 11.2645 74.9782 11.3301 75.3077 11.4708C75.6372 11.6115 75.9317 11.8239 76.17 12.0928C76.6622 12.7187 76.9088 13.505 76.863 14.3021V22.209H79.2884V14.2439C79.2502 13.672 79.3916 13.1025 79.6926 12.616C79.8899 12.1971 80.2132 11.8513 80.6166 11.6276C81.0011 11.3984 81.4401 11.2778 81.887 11.2788C82.235 11.273 82.5801 11.3428 82.899 11.4832C83.2179 11.6237 83.503 11.8315 83.7349 12.0928C84.0005 12.3799 84.2042 12.7193 84.3334 13.0894C84.4626 13.4596 84.5144 13.8526 84.4857 14.2439V22.209H86.9111V13.6625C86.9869 12.4563 86.5934 11.2677 85.8139 10.3486C85.391 9.92672 84.8842 9.59981 84.3268 9.38937C83.7694 9.17893 83.1741 9.08973 82.58 9.12764Z" fill="#222525"/>
<path d="M98.9794 9.94174C98.0685 9.34988 97.0025 9.04614 95.9187 9.06965C94.8331 9.03116 93.7627 9.33615 92.8581 9.94174L92.1651 10.5813V9.41849H89.9707V27.9069H92.4539V21.2789L92.8581 21.6859C93.7659 22.2845 94.834 22.5888 95.9187 22.558C97.0216 22.5897 98.1084 22.2857 99.0371 21.6859C99.8977 21.0645 100.576 20.2209 101.001 19.2441C101.458 18.1591 101.694 16.9925 101.694 15.8138C101.694 14.6352 101.458 13.4686 101.001 12.3836C100.573 11.3914 99.8717 10.5438 98.9794 9.94174ZM98.6906 18.0813C98.4781 18.729 98.0753 19.2967 97.5357 19.7092C96.9922 20.1363 96.3193 20.3621 95.63 20.3487C94.9141 20.3594 94.211 20.1571 93.6088 19.7673C93.0851 19.3516 92.7019 18.783 92.5116 18.1394C92.0485 16.6241 92.0485 15.0036 92.5116 13.4883C92.7231 12.855 93.1025 12.2921 93.6088 11.8603C94.1724 11.4798 94.8359 11.2774 95.5145 11.279C96.2404 11.2576 96.9524 11.4829 97.5357 11.9185C98.0753 12.331 98.4781 12.8986 98.6906 13.5464C99.2303 15.0092 99.2303 16.6185 98.6906 18.0813Z" fill="#222525"/>
<path d="M114.167 11.5117C113.806 10.6793 113.146 10.0149 112.319 9.65127C111.393 9.23571 110.386 9.03692 109.374 9.06988C108.124 9.00645 106.888 9.35331 105.851 10.0583C104.953 10.6767 104.315 11.6092 104.061 12.6745L106.313 13.3722C106.512 12.7168 106.944 12.158 107.526 11.8024C108.075 11.4996 108.69 11.3397 109.316 11.3373C110.413 11.3373 111.164 11.5699 111.568 12.0931C111.993 12.6177 112.218 13.2772 112.203 13.9536L110.76 14.128L108.507 14.4769L106.602 14.942C106.003 15.1185 105.437 15.3935 104.927 15.7559C104.491 16.0847 104.151 16.5268 103.945 17.035C103.703 17.5627 103.584 18.1397 103.599 18.721C103.601 19.3883 103.759 20.0456 104.061 20.6397C104.406 21.2296 104.905 21.7124 105.505 22.035C106.239 22.4036 107.052 22.5834 107.872 22.5583C108.917 22.5953 109.952 22.3547 110.875 21.8606C111.503 21.483 112.036 20.9659 112.434 20.349V22.2094H114.629V14.3606C114.641 13.856 114.621 13.3511 114.571 12.8489C114.524 12.3809 114.387 11.9267 114.167 11.5117ZM111.915 18.0234C111.82 18.4704 111.622 18.8887 111.337 19.2443C110.985 19.6175 110.575 19.9316 110.124 20.1745C109.559 20.4174 108.949 20.5363 108.334 20.5234C107.879 20.5525 107.424 20.4728 107.006 20.2908C106.709 20.1411 106.451 19.9218 106.255 19.6513C106.091 19.3702 106.01 19.0471 106.024 18.721C106.003 18.4126 106.084 18.1059 106.255 17.849C106.394 17.5868 106.618 17.3813 106.891 17.2676C107.153 17.0666 107.445 16.9095 107.757 16.8024L109.143 16.5117L110.875 16.221L112.203 15.9885C112.153 16.2371 112.134 16.4909 112.146 16.7443C112.13 17.1796 112.052 17.6104 111.915 18.0234Z" fill="#222525"/>
<path d="M120.405 4.94141H117.922V7.34838H120.405V4.94141Z" fill="#222525"/>
<path d="M120.405 9.47656H117.922V22.2673H120.405V9.47656Z" fill="#222525"/>
<path d="M132.763 10.5819C132.54 10.3383 132.288 10.1235 132.012 9.94233C131.131 9.33385 130.077 9.028 129.009 9.07024C127.925 9.01886 126.851 9.31087 125.94 9.90526C125.028 10.4996 124.325 11.3665 123.928 12.3842C123.47 13.4692 123.234 14.6358 123.234 15.8144C123.234 16.9931 123.47 18.1597 123.928 19.2447C124.321 20.2526 125.016 21.1127 125.916 21.7063C126.816 22.2999 127.876 22.5977 128.952 22.5586C130.037 22.5971 131.108 22.2921 132.012 21.6865L132.474 21.3377V22.5586C132.506 23.1853 132.366 23.8087 132.07 24.3609C131.831 24.8524 131.448 25.2583 130.973 25.5237C130.407 25.7666 129.797 25.8855 129.183 25.8726C128.625 25.875 128.073 25.756 127.566 25.5237C127.057 25.2562 126.651 24.8269 126.411 24.3028L124.101 25.4656C124.449 26.0465 124.899 26.5588 125.429 26.9772C125.952 27.3955 126.536 27.729 127.161 27.9656C127.801 28.1476 128.461 28.2453 129.125 28.2563C130.028 28.2865 130.928 28.1485 131.781 27.8493C132.534 27.5995 133.21 27.1591 133.745 26.5702C134.258 25.9703 134.616 25.251 134.784 24.4772C134.842 24.1284 134.842 23.8377 134.9 23.547V9.41908H132.763V10.5819ZM131.262 19.7679C130.68 20.1563 129.996 20.359 129.298 20.3493C128.59 20.3714 127.896 20.1454 127.335 19.7098C126.811 19.2814 126.412 18.7191 126.18 18.0819C125.719 16.6059 125.719 15.023 126.18 13.547C126.434 12.9058 126.852 12.344 127.392 11.9191C127.954 11.4835 128.648 11.2575 129.356 11.2795C130.037 11.2585 130.706 11.4627 131.262 11.8609C131.785 12.2893 132.184 12.8516 132.416 13.4888C132.88 15.0042 132.88 16.6247 132.416 18.14C132.204 18.7878 131.801 19.3554 131.262 19.7679Z" fill="#222525"/>
<path d="M149.106 12.1502C148.929 11.6013 148.655 11.0891 148.297 10.6386C147.9 10.1457 147.383 9.76501 146.796 9.53396C146.109 9.21251 145.359 9.05341 144.601 9.06884C143.568 9.02666 142.544 9.28935 141.656 9.82466C141.179 10.1477 140.751 10.5395 140.386 10.9874V9.41768H138.191V22.2084H140.675V15.5805C140.673 14.9108 140.77 14.2446 140.963 13.6037C141.111 13.1367 141.346 12.7025 141.656 12.3247C141.955 12.0274 142.308 11.7906 142.696 11.627C143.09 11.5121 143.498 11.4533 143.908 11.4526C144.494 11.4206 145.076 11.5621 145.583 11.8595C145.994 12.118 146.332 12.4784 146.565 12.9061C146.779 13.3892 146.934 13.8968 147.027 14.4177C147.094 14.9189 147.132 15.4236 147.142 15.9293V22.2084H149.625V15.1154C149.64 14.6473 149.601 14.1792 149.51 13.72C149.457 13.1788 149.321 12.6492 149.106 12.1502Z" fill="#222525"/>
<path d="M159.5 13.7793H152.455V15.7677H159.5V13.7793Z" fill="#222525"/>
<path d="M166.025 11.9772C166.594 11.5623 167.287 11.357 167.988 11.3958C168.667 11.3942 169.33 11.5967 169.894 11.9772C170.471 12.3905 170.897 12.9828 171.107 13.6633L173.532 12.9656C173.281 11.806 172.599 10.7868 171.626 10.1167C170.603 9.46532 169.424 9.10512 168.214 9.07441C167.004 9.0437 165.809 9.34362 164.754 9.94232C163.83 10.5142 163.088 11.3417 162.618 12.326C162.114 13.4186 161.858 14.61 161.867 15.8144C161.841 17.0205 162.099 18.2156 162.618 19.3028C163.064 20.2849 163.787 21.1137 164.697 21.6865C165.689 22.2877 166.831 22.5903 167.988 22.5586C169.234 22.5874 170.46 22.2434 171.511 21.5702C172.477 20.8694 173.187 19.8685 173.532 18.7214L171.049 18.0819C170.837 18.7151 170.458 19.278 169.952 19.7098C169.365 20.0811 168.68 20.2636 167.988 20.233C167.488 20.2639 166.989 20.1683 166.535 19.955C166.081 19.7418 165.687 19.4176 165.39 19.0121C164.751 18.0723 164.428 16.9521 164.466 15.8144C164.467 15.0405 164.604 14.2729 164.87 13.547C165.098 12.9237 165.499 12.379 166.025 11.9772Z" fill="#222525"/>
<path d="M184.446 9.9992C183.453 9.3468 182.282 9.0217 181.097 9.06896C179.967 9.05384 178.853 9.33431 177.863 9.88292C176.935 10.4677 176.177 11.2903 175.669 12.2666C175.137 13.4117 174.88 14.6662 174.918 15.9294C174.879 17.1368 175.137 18.3351 175.669 19.4178C176.202 20.3801 176.979 21.1827 177.921 21.7434C178.932 22.2919 180.064 22.572 181.212 22.5573C182.396 22.5898 183.562 22.2659 184.562 21.6271C185.587 21.0122 186.379 20.0713 186.814 18.9527L184.446 18.1969C184.157 18.8363 183.682 19.3726 183.084 19.7357C182.487 20.0988 181.794 20.2717 181.097 20.2318C180.595 20.2547 180.095 20.1619 179.635 19.9604C179.174 19.7588 178.766 19.4539 178.441 19.069C177.89 18.3301 177.587 17.4344 177.574 16.5108H186.987C187.128 15.1701 186.95 13.8149 186.467 12.5573C186.059 11.5224 185.356 10.6323 184.446 9.9992ZM178.441 12.4411C178.778 12.0398 179.205 11.7251 179.687 11.5229C180.169 11.3207 180.692 11.2369 181.212 11.2783C181.679 11.2415 182.148 11.3172 182.58 11.4992C183.012 11.6812 183.394 11.9642 183.696 12.3248C184.163 12.9934 184.443 13.7768 184.504 14.5922H177.574C177.673 13.8117 177.971 13.0703 178.441 12.4411Z" fill="#222525"/>
<path d="M200.211 12.1503C199.992 11.6089 199.701 11.1003 199.345 10.6386C198.957 10.1605 198.463 9.78187 197.901 9.53398C197.08 9.18334 196.189 9.02721 195.298 9.07761C194.407 9.128 193.539 9.38359 192.762 9.82468C192.26 10.1162 191.827 10.5128 191.491 10.9875V9.41771H189.297V22.2084H191.78V15.5805C191.761 14.9138 191.839 14.2479 192.011 13.6038C192.159 13.1368 192.394 12.7026 192.704 12.3247C193.003 12.0275 193.356 11.7906 193.743 11.627C194.157 11.5082 194.584 11.4494 195.014 11.4526C195.539 11.4214 196.063 11.5415 196.523 11.7989C196.983 12.0563 197.361 12.4404 197.613 12.9061C197.852 13.3793 198.009 13.8907 198.075 14.4177C198.142 14.919 198.18 15.4237 198.19 15.9293V22.2084H200.673V15.1154C200.681 14.6495 200.661 14.1836 200.615 13.72C200.508 13.1901 200.373 12.6661 200.211 12.1503Z" fill="#222525"/>
<path d="M207.256 5.87305H204.773V9.41956H202.348V11.3963H204.773V17.2103C204.773 17.8498 204.773 18.4893 204.831 19.0707C204.827 19.6206 204.966 20.1619 205.235 20.6405C205.528 21.2352 206.018 21.7082 206.621 21.9777C207.278 22.2666 207.984 22.4245 208.7 22.4428C209.476 22.4491 210.25 22.3711 211.01 22.2103V20.1172C210.305 20.2506 209.584 20.2703 208.873 20.1754C208.594 20.1623 208.322 20.0814 208.081 19.9397C207.84 19.7979 207.636 19.5996 207.487 19.3614C207.343 19.0721 207.265 18.7546 207.256 18.4312V11.3963H211.01V9.41956H207.256V5.87305Z" fill="#222525"/>
<path d="M219.384 9.35992C218.952 9.3756 218.524 9.45393 218.113 9.59248C217.728 9.70471 217.372 9.90349 217.074 10.1739C216.72 10.3648 216.421 10.6453 216.208 10.9878L215.861 11.4529V9.41806H213.725V22.2088H216.208V15.7553C216.186 15.2678 216.225 14.7796 216.323 14.3018C216.436 13.8713 216.611 13.4599 216.843 13.0809C217.075 12.7024 217.391 12.3839 217.767 12.1506C218.185 11.8761 218.658 11.6974 219.153 11.6274C219.618 11.6034 220.084 11.6425 220.539 11.7436V9.41806C220.159 9.33965 219.77 9.32004 219.384 9.35992Z" fill="#222525"/>
<path d="M225.563 4.94141H223.08V7.34838H225.563V4.94141Z" fill="#222525"/>
<path d="M225.563 9.47656H223.08V22.2673H225.563V9.47656Z" fill="#222525"/>
<path d="M236.363 19.7094C235.801 20.0871 235.132 20.2707 234.457 20.2326C233.95 20.2579 233.444 20.1602 232.981 19.9477C232.519 19.7353 232.114 19.4143 231.801 19.0117C231.183 18.065 230.88 16.9454 230.935 15.814C230.908 15.0379 231.046 14.2649 231.339 13.5466C231.567 12.9382 231.944 12.398 232.436 11.9768C233.027 11.5618 233.738 11.3572 234.457 11.3954C235.133 11.41 235.792 11.6111 236.363 11.9768C236.905 12.4235 237.323 13.0045 237.576 13.6629L240.001 12.9652C239.705 11.8102 239.009 10.7998 238.038 10.1164C237.004 9.39846 235.77 9.03179 234.515 9.06985C233.338 9.03025 232.175 9.33305 231.166 9.94194C230.244 10.5008 229.518 11.3337 229.087 12.3257C228.555 13.4084 228.297 14.6067 228.336 15.814C228.32 17.0131 228.556 18.2019 229.029 19.3024C229.512 20.2601 230.227 21.0799 231.108 21.6861C232.118 22.295 233.281 22.5978 234.457 22.5582C235.685 22.5934 236.895 22.2484 237.922 21.5698C238.919 20.8883 239.653 19.8825 240.001 18.721L237.518 18.0815C237.285 18.7187 236.886 19.2811 236.363 19.7094Z" fill="#222525"/>
<path d="M21.0782 1.74403C17.5906 -0.112339 13.5158 -0.506285 9.74101 0.647982C5.96624 1.80225 2.7973 4.41124 0.924258 7.90682C0.77108 8.24243 0.745241 8.6229 0.851633 8.97637C0.958025 9.32985 1.18929 9.63187 1.50174 9.82542C1.83278 9.99336 2.21529 10.0267 2.57006 9.91843C2.92482 9.8102 3.22464 9.56873 3.40741 9.24403C4.45071 7.23125 6.03326 5.553 7.97563 4.39955C9.918 3.2461 12.1425 2.66359 14.3969 2.71807C16.6514 2.77254 18.8455 3.46182 20.7307 4.70775C22.6159 5.95368 24.1166 7.70643 25.0628 9.76729C25.1875 9.99667 25.3713 10.1879 25.5949 10.321C25.8185 10.454 26.0736 10.5238 26.3333 10.5231C26.5329 10.5412 26.7334 10.5008 26.9108 10.4068C27.079 10.3326 27.23 10.2241 27.3544 10.0881C27.4788 9.95212 27.5739 9.79165 27.6336 9.61682C27.6933 9.44199 27.7163 9.2566 27.7012 9.07235C27.6862 8.8881 27.6333 8.709 27.546 8.54636C26.1852 5.62909 23.9137 3.24014 21.0782 1.74403Z" fill="#222525"/>
<path d="M26.6804 20.1155L20.2704 16.6853C20.111 16.6022 19.936 16.5541 19.7569 16.5441C19.5777 16.534 19.3984 16.5623 19.2309 16.6271C19.0593 16.6711 18.8988 16.7507 18.7596 16.8609C18.6204 16.971 18.5055 17.1092 18.4225 17.2667C18.1215 17.8363 17.7113 18.3403 17.2157 18.7494C16.7201 19.1586 16.1489 19.4648 15.5351 19.6504C14.919 19.8541 14.268 19.9282 13.6223 19.8682C12.9766 19.8082 12.3501 19.6153 11.7815 19.3015C11.2147 19.0018 10.7125 18.5921 10.3038 18.0961C9.89504 17.6 9.58787 17.0275 9.39998 16.4113C9.21209 15.7952 9.14721 15.1477 9.20905 14.5062C9.27089 13.8647 9.45823 13.2419 9.76029 12.6736C10.3852 11.5245 11.4155 10.6531 12.6477 10.2318C13.9033 9.86467 15.2521 10.0109 16.4013 10.6387C17.2627 11.0973 17.967 11.8064 18.4225 12.6736C18.5942 12.9942 18.8836 13.2344 19.2289 13.343C19.5742 13.4517 19.9479 13.4201 20.2704 13.255C20.5989 13.0923 20.8501 12.8053 20.9691 12.4567C21.0881 12.1081 21.0653 11.7263 20.9056 11.3946C20.1695 10.0124 19.0446 8.87983 17.6718 8.13874C16.7829 7.66569 15.8093 7.37576 14.8078 7.28592C13.8064 7.19608 12.7972 7.30811 11.8392 7.61548C9.9136 8.21759 8.29747 9.55265 7.33489 11.3364C6.86152 12.229 6.56814 13.207 6.47165 14.2142C6.37516 15.2214 6.47745 16.2379 6.77264 17.2051C7.06783 18.1723 7.5501 19.0712 8.19168 19.8501C8.83326 20.629 9.6215 21.2724 10.511 21.7434C11.3913 22.2388 12.3635 22.5461 13.3671 22.6462C14.3706 22.7462 15.3839 22.6368 16.3435 22.3248C17.8219 21.8717 19.1301 20.9801 20.0971 19.7667L24.0818 21.9178C22.8098 23.7716 21.0532 25.2349 19.0063 26.1457C16.9593 27.0565 14.702 27.3794 12.4842 27.0784C10.2663 26.7775 8.17438 25.8646 6.44 24.4407C4.70562 23.0168 3.39642 21.1375 2.65731 19.0108C2.59935 18.8409 2.50799 18.6845 2.38866 18.551C2.26934 18.4174 2.12449 18.3094 1.9628 18.2334C1.8011 18.1574 1.62586 18.1151 1.44753 18.1088C1.2692 18.1025 1.09145 18.1325 0.924876 18.1969C0.750952 18.2492 0.589516 18.3368 0.450529 18.4543C0.311543 18.5718 0.197952 18.7168 0.11678 18.8802C0.0356081 19.0437 -0.0114241 19.2221 -0.0214212 19.4046C-0.0314183 19.587 -0.00416475 19.7696 0.0586588 19.9411C1.28247 23.4928 3.80074 26.4438 7.10388 28.1969C9.24847 29.3654 11.653 29.9656 14.0914 29.9411C16.7904 29.9418 19.4394 29.2072 21.7574 27.8152C24.0754 26.4231 25.9761 24.4255 27.2579 22.0341C27.4247 21.7008 27.4578 21.3157 27.3503 20.9585C27.2428 20.6013 27.0029 20.2995 26.6804 20.1155Z" fill="#222525"/>
</g>
<defs>
<clipPath id="clip0_15392_258074">
<rect width="240" height="30" fill="white"/>
</clipPath>
</defs>
</svg>
