<svg width="68" height="100" viewBox="0 0 68 100" fill="none" xmlns="http://www.w3.org/2000/svg">
<circle cx="50" cy="50" r="50" fill="#F8FF93"/>
<path fill-rule="evenodd" clip-rule="evenodd" d="M50.0006 0C57.6762 0 64.9479 1.72957 71.4472 4.82024C53.6747 0.43958 56.5638 15.9145 65.6871 21.3562C74.8288 26.8087 81.729 36.0923 73.922 43.0953C73.922 43.0953 56.3471 52.8375 35.0484 39.5755C26.3407 34.1518 19.086 25.1056 15.0148 14.2789C24.0323 5.44587 36.3804 0 50.0006 0ZM0.947266 59.7329C4.2339 76.3916 15.7948 90.0781 31.1707 96.3332L25.4914 82.4192C23.2612 76.9378 19.837 72.0272 15.4817 68.0642C11.2775 64.2388 6.31367 61.3947 0.947266 59.7329Z" fill="#222525"/>
</svg>
