<svg width="14" height="14" viewBox="0 0 14 14" fill="none" xmlns="http://www.w3.org/2000/svg">
<path d="M13.4173 7L11.994 5.3725L12.1923 3.22L10.0865 2.74167L8.98398 0.875L7.00065 1.72667L5.01732 0.875L3.91482 2.73583L1.80898 3.20833L2.00732 5.36667L0.583984 7L2.00732 8.6275L1.80898 10.7858L3.91482 11.2642L5.01732 13.125L7.00065 12.2675L8.98398 13.1192L10.0865 11.2583L12.1923 10.78L11.994 8.6275L13.4173 7ZM5.47232 9.33917L4.08398 7.93917C3.85648 7.71167 3.85648 7.34417 4.08398 7.11667L4.12482 7.07583C4.35232 6.84833 4.72565 6.84833 4.95315 7.07583L5.89232 8.02083L8.89649 5.01083C9.12399 4.78333 9.49732 4.78333 9.72482 5.01083L9.76565 5.05167C9.99315 5.27917 9.99315 5.64667 9.76565 5.87417L6.31232 9.33917C6.07315 9.56667 5.70565 9.56667 5.47232 9.33917Z" fill="white"/>
</svg>
